<?xml version="1.0" encoding="utf-8"?>
<svg version="1.1" xmlns:xlink="http://www.w3.org/1999/xlink" width="17px" height="16px" xmlns="http://www.w3.org/2000/svg">
  <g transform="matrix(1 0 0 1 -206 -501 )">
    <path d="M 16.4278846153848 5.73660995589159  C 16.8092948717949 5.79710144927537  17 5.95169082125608  17 6.20037807183371  C 17 6.34824616677167  16.911458333333 6.50955681579501  16.734375 6.6843100189036  L 13.0258413461538 10.2533081285444  L 13.9044471153848 15.294265910523  C 13.9112580128203 15.3413148498215  13.9146634615386 15.4085276202478  13.9146634615386 15.4959042218021  C 13.9146634615386 15.6370510396976  13.87890625 15.7563537072043  13.8073918269229 15.8538122243226  C 13.7358774038462 15.9512707414409  13.6320112179487 16  13.4957932692305 16  C 13.3663862179487 16  13.2301682692305 15.9596723377441  13.0871394230771 15.8790170132326  L 8.5 13.4996849401386  L 3.91286057692287 15.8790170132326  C 3.76302083333303 15.9596723377441  3.62680288461524 16  3.50420673076951 16  C 3.36117788461524 16  3.25390625 15.9512707414409  3.18239182692287 15.8538122243226  C 3.11087740384619 15.7563537072043  3.07512019230762 15.6370510396976  3.07512019230762 15.4959042218021  C 3.07512019230762 15.4555765595463  3.08193108974365 15.3883637891199  3.09555288461524 15.294265910523  L 3.97415865384619 10.2533081285444  L 0.255408653846189 6.6843100189036  C 0.0851362179487296 6.50283553875238  0 6.34152488972904  0 6.20037807183371  C 0 5.95169082125608  0.190705128205082 5.79710144927537  0.572115384615245 5.73660995589159  L 5.70072115384619 5.00063011972281  L 7.99939903846143 0.413358538122225  C 8.12880608974365 0.137786179374075  8.29567307692287 0  8.5 0  C 8.70432692307713 0  8.87119391025635 0.137786179374075  9.00060096153857 0.413358538122225  L 11.2992788461538 5.00063011972281  L 16.4278846153848 5.73660995589159  Z " fill-rule="nonzero" fill="#333333" stroke="none" transform="matrix(1 0 0 1 206 501 )" />
  </g>
</svg>