<?xml version="1.0" encoding="utf-8"?>
<svg version="1.1" xmlns:xlink="http://www.w3.org/1999/xlink" width="11px" height="21px" xmlns="http://www.w3.org/2000/svg">
  <g transform="matrix(1 0 0 1 -70 -851 )">
    <path d="M 10.6371527777778 9.5771484375  C 10.8790509259256 9.8369140625  11 10.14453125  11 10.5  C 11 10.85546875  10.8790509259256 11.1630859375  10.6371527777778 11.4228515625  L 2.08159722222217 20.6103515625  C 1.83969907407436 20.8701171875  1.55324074074088 21  1.22222222222217 21  C 0.891203703703468 21  0.60474537037021 20.8701171875  0.362847222222172 20.6103515625  C 0.12094907407436 20.3505859375  0 20.04296875  0 19.6875  L 0 1.3125  C 0 0.95703125  0.12094907407436 0.6494140625  0.362847222222172 0.3896484375  C 0.60474537037021 0.1298828125  0.891203703703468 0  1.22222222222217 0  C 1.55324074074088 0  1.83969907407436 0.1298828125  2.08159722222217 0.3896484375  L 10.6371527777778 9.5771484375  Z " fill-rule="nonzero" fill="#333333" stroke="none" transform="matrix(1 0 0 1 70 851 )" />
  </g>
</svg>