<?xml version="1.0" encoding="utf-8"?>
<svg version="1.1" xmlns:xlink="http://www.w3.org/1999/xlink" width="51px" height="50px" xmlns="http://www.w3.org/2000/svg">
  <g transform="matrix(1 0 0 1 -7 -67 )">
    <path d="M 32.5 67  C 46.78 67  58 78  58 92  C 58 106  46.78 117  32.5 117  C 18.22 117  7 106  7 92  C 7 78  18.22 67  32.5 67  Z " fill-rule="nonzero" fill="#ffffff" stroke="none" />
    <path d="M 32.5 67.5  C 46.5 67.5  57.5 78.28  57.5 92  C 57.5 105.72  46.5 116.5  32.5 116.5  C 18.5 116.5  7.5 105.72  7.5 92  C 7.5 78.28  18.5 67.5  32.5 67.5  Z " stroke-width="1" stroke="#797979" fill="none" />
  </g>
</svg>