<?xml version="1.0" encoding="utf-8"?>
<svg version="1.1" xmlns:xlink="http://www.w3.org/1999/xlink" width="49px" height="28px" xmlns="http://www.w3.org/2000/svg">
  <defs>
    <mask fill="white" id="clip183">
      <path d="M 29.0144927536235 13.354709418838  C 29.3526570048307 13.5417501670008  29.5217391304345 13.7568470273882  29.5217391304345 14  C 29.5217391304345 14.2431529726118  29.3526570048307 14.4582498329992  29.0144927536235 14.645290581162  L 5.37681159420299 27.7194388777552  C 5.03864734299532 27.9064796259186  4.64975845410618 28  4.21014492753648 28  C 3.77053140096632 28  3.38164251207763 27.9064796259186  3.04347826086951 27.7194388777552  L 0.507246376811509 26.3166332665332  C 0.169082125603836 26.1295925183704  0 25.9144956579826  0 25.6713426853707  C 0 25.4281897127589  0.169082125603836 25.2130928523711  0.507246376811509 25.0260521042082  L 20.442028985507 14  L 0.507246376811509 2.97394789579175  C 0.169082125603836 2.78690714762888  0 2.57181028724108  0 2.32865731462925  C 0 2.08550434201743  0.169082125603836 1.87040748162963  0.507246376811509 1.68336673346676  L 3.04347826086951 0.280561122244762  C 3.38164251207763 0.0935203740814359  3.77053140096632 0  4.21014492753648 0  C 4.64975845410618 0  5.03864734299532 0.0935203740814359  5.37681159420299 0.280561122244762  L 29.0144927536235 13.354709418838  Z M 48.4927536231885 13.354709418838  C 48.8309178743962 13.5417501670008  49 13.7568470273882  49 14  C 49 14.2431529726118  48.8309178743962 14.4582498329992  48.4927536231885 14.645290581162  L 24.855072463768 27.7194388777552  C 24.5169082125603 27.9064796259186  24.1280193236717 28  23.6884057971015 28  C 23.2487922705313 28  22.8599033816422 27.9064796259186  22.521739130435 27.7194388777552  L 19.9855072463765 26.3166332665332  C 19.6473429951693 26.1295925183704  19.4782608695655 25.9144956579826  19.4782608695655 25.6713426853707  C 19.4782608695655 25.4281897127589  19.6473429951693 25.2130928523711  19.9855072463765 25.0260521042082  L 39.9202898550725 14  L 19.9855072463765 2.97394789579175  C 19.6473429951693 2.78690714762888  19.4782608695655 2.57181028724108  19.4782608695655 2.32865731462925  C 19.4782608695655 2.08550434201743  19.6473429951693 1.87040748162963  19.9855072463765 1.68336673346676  L 22.521739130435 0.280561122244762  C 22.8599033816422 0.0935203740814359  23.2487922705313 0  23.6884057971015 0  C 24.1280193236717 0  24.5169082125603 0.0935203740814359  24.855072463768 0.280561122244762  L 48.4927536231885 13.354709418838  Z " fill-rule="evenodd" />
    </mask>
  </defs>
  <g transform="matrix(1 0 0 1 -321 -444 )">
    <path d="M 29.0144927536235 13.354709418838  C 29.3526570048307 13.5417501670008  29.5217391304345 13.7568470273882  29.5217391304345 14  C 29.5217391304345 14.2431529726118  29.3526570048307 14.4582498329992  29.0144927536235 14.645290581162  L 5.37681159420299 27.7194388777552  C 5.03864734299532 27.9064796259186  4.64975845410618 28  4.21014492753648 28  C 3.77053140096632 28  3.38164251207763 27.9064796259186  3.04347826086951 27.7194388777552  L 0.507246376811509 26.3166332665332  C 0.169082125603836 26.1295925183704  0 25.9144956579826  0 25.6713426853707  C 0 25.4281897127589  0.169082125603836 25.2130928523711  0.507246376811509 25.0260521042082  L 20.442028985507 14  L 0.507246376811509 2.97394789579175  C 0.169082125603836 2.78690714762888  0 2.57181028724108  0 2.32865731462925  C 0 2.08550434201743  0.169082125603836 1.87040748162963  0.507246376811509 1.68336673346676  L 3.04347826086951 0.280561122244762  C 3.38164251207763 0.0935203740814359  3.77053140096632 0  4.21014492753648 0  C 4.64975845410618 0  5.03864734299532 0.0935203740814359  5.37681159420299 0.280561122244762  L 29.0144927536235 13.354709418838  Z M 48.4927536231885 13.354709418838  C 48.8309178743962 13.5417501670008  49 13.7568470273882  49 14  C 49 14.2431529726118  48.8309178743962 14.4582498329992  48.4927536231885 14.645290581162  L 24.855072463768 27.7194388777552  C 24.5169082125603 27.9064796259186  24.1280193236717 28  23.6884057971015 28  C 23.2487922705313 28  22.8599033816422 27.9064796259186  22.521739130435 27.7194388777552  L 19.9855072463765 26.3166332665332  C 19.6473429951693 26.1295925183704  19.4782608695655 25.9144956579826  19.4782608695655 25.6713426853707  C 19.4782608695655 25.4281897127589  19.6473429951693 25.2130928523711  19.9855072463765 25.0260521042082  L 39.9202898550725 14  L 19.9855072463765 2.97394789579175  C 19.6473429951693 2.78690714762888  19.4782608695655 2.57181028724108  19.4782608695655 2.32865731462925  C 19.4782608695655 2.08550434201743  19.6473429951693 1.87040748162963  19.9855072463765 1.68336673346676  L 22.521739130435 0.280561122244762  C 22.8599033816422 0.0935203740814359  23.2487922705313 0  23.6884057971015 0  C 24.1280193236717 0  24.5169082125603 0.0935203740814359  24.855072463768 0.280561122244762  L 48.4927536231885 13.354709418838  Z " fill-rule="nonzero" fill="#66cccc" stroke="none" transform="matrix(1 0 0 1 321 444 )" />
    <path d="M 29.0144927536235 13.354709418838  C 29.3526570048307 13.5417501670008  29.5217391304345 13.7568470273882  29.5217391304345 14  C 29.5217391304345 14.2431529726118  29.3526570048307 14.4582498329992  29.0144927536235 14.645290581162  L 5.37681159420299 27.7194388777552  C 5.03864734299532 27.9064796259186  4.64975845410618 28  4.21014492753648 28  C 3.77053140096632 28  3.38164251207763 27.9064796259186  3.04347826086951 27.7194388777552  L 0.507246376811509 26.3166332665332  C 0.169082125603836 26.1295925183704  0 25.9144956579826  0 25.6713426853707  C 0 25.4281897127589  0.169082125603836 25.2130928523711  0.507246376811509 25.0260521042082  L 20.442028985507 14  L 0.507246376811509 2.97394789579175  C 0.169082125603836 2.78690714762888  0 2.57181028724108  0 2.32865731462925  C 0 2.08550434201743  0.169082125603836 1.87040748162963  0.507246376811509 1.68336673346676  L 3.04347826086951 0.280561122244762  C 3.38164251207763 0.0935203740814359  3.77053140096632 0  4.21014492753648 0  C 4.64975845410618 0  5.03864734299532 0.0935203740814359  5.37681159420299 0.280561122244762  L 29.0144927536235 13.354709418838  Z " stroke-width="2" stroke="#999999" fill="none" transform="matrix(1 0 0 1 321 444 )" mask="url(#clip183)" />
    <path d="M 48.4927536231885 13.354709418838  C 48.8309178743962 13.5417501670008  49 13.7568470273882  49 14  C 49 14.2431529726118  48.8309178743962 14.4582498329992  48.4927536231885 14.645290581162  L 24.855072463768 27.7194388777552  C 24.5169082125603 27.9064796259186  24.1280193236717 28  23.6884057971015 28  C 23.2487922705313 28  22.8599033816422 27.9064796259186  22.521739130435 27.7194388777552  L 19.9855072463765 26.3166332665332  C 19.6473429951693 26.1295925183704  19.4782608695655 25.9144956579826  19.4782608695655 25.6713426853707  C 19.4782608695655 25.4281897127589  19.6473429951693 25.2130928523711  19.9855072463765 25.0260521042082  L 39.9202898550725 14  L 19.9855072463765 2.97394789579175  C 19.6473429951693 2.78690714762888  19.4782608695655 2.57181028724108  19.4782608695655 2.32865731462925  C 19.4782608695655 2.08550434201743  19.6473429951693 1.87040748162963  19.9855072463765 1.68336673346676  L 22.521739130435 0.280561122244762  C 22.8599033816422 0.0935203740814359  23.2487922705313 0  23.6884057971015 0  C 24.1280193236717 0  24.5169082125603 0.0935203740814359  24.855072463768 0.280561122244762  L 48.4927536231885 13.354709418838  Z " stroke-width="2" stroke="#999999" fill="none" transform="matrix(1 0 0 1 321 444 )" mask="url(#clip183)" />
  </g>
</svg>