<?xml version="1.0" encoding="utf-8"?>
<svg version="1.1" xmlns:xlink="http://www.w3.org/1999/xlink" width="36px" height="36px" xmlns="http://www.w3.org/2000/svg">
  <g transform="matrix(1 0 0 1 -17 -75 )">
    <path d="M 31.1470588235294 27.9485294117647  C 31.5588235294117 27.5367647058823  31.7647058823529 27.0441176470588  31.7647058823529 26.4705882352941  C 31.7647058823529 25.8823529411765  31.5588235294117 25.3823529411765  31.1470588235294 24.9705882352941  L 26.5588235294117 20.3823529411765  C 26.1470588235294 19.9705882352941  25.6470588235294 19.7647058823529  25.0588235294117 19.7647058823529  C 24.4411764705883 19.7647058823529  23.9117647058823 20  23.4705882352941 20.4705882352941  C 23.5147058823529 20.5147058823529  23.6544117647059 20.6507352941177  23.8897058823529 20.8786764705882  C 24.125 21.1066176470588  24.2830882352941 21.2647058823529  24.3639705882352 21.3529411764706  C 24.4448529411765 21.4411764705882  24.5551470588235 21.5808823529412  24.6948529411765 21.7720588235294  C 24.8345588235294 21.9632352941177  24.9301470588235 22.1507352941177  24.9816176470588 22.3345588235294  C 25.0330882352941 22.5183823529412  25.0588235294117 22.7205882352941  25.0588235294117 22.9411764705882  C 25.0588235294117 23.5294117647059  24.8529411764706 24.0294117647059  24.4411764705883 24.4411764705882  C 24.0294117647059 24.8529411764706  23.5294117647059 25.0588235294118  22.9411764705883 25.0588235294118  C 22.7205882352941 25.0588235294118  22.5183823529412 25.0330882352941  22.3345588235294 24.9816176470588  C 22.1507352941177 24.9301470588235  21.9632352941177 24.8345588235294  21.7720588235294 24.6948529411765  C 21.5808823529412 24.5551470588235  21.4411764705883 24.4448529411765  21.3529411764706 24.3639705882353  C 21.2647058823529 24.2830882352941  21.1066176470588 24.125  20.8786764705883 23.8897058823529  C 20.6507352941177 23.6544117647059  20.5147058823529 23.5147058823529  20.4705882352941 23.4705882352941  C 19.9852941176471 23.9264705882353  19.7426470588235 24.4632352941177  19.7426470588235 25.0808823529412  C 19.7426470588235 25.6691176470588  19.9485294117648 26.1691176470588  20.3602941176471 26.5808823529412  L 24.9044117647059 31.1470588235294  C 25.3014705882352 31.5441176470588  25.8014705882352 31.7426470588235  26.4044117647059 31.7426470588235  C 26.9926470588235 31.7426470588235  27.4926470588235 31.5514705882353  27.9044117647059 31.1691176470588  L 31.1470588235294 27.9485294117647  Z M 15.5294117647059 12.5294117647059  C 16.0147058823529 12.0735294117647  16.2573529411765 11.5367647058823  16.2573529411765 10.9191176470588  C 16.2573529411765 10.3308823529412  16.0514705882352 9.83088235294116  15.6397058823529 9.41911764705881  L 11.0955882352941 4.85294117647058  C 10.6838235294117 4.44117647058823  10.1838235294117 4.23529411764707  9.59558823529414 4.23529411764707  C 9.02205882352939 4.23529411764707  8.52205882352939 4.43382352941177  8.09558823529414 4.83088235294119  L 4.85294117647061 8.0514705882353  C 4.44117647058829 8.46323529411765  4.23529411764707 8.95588235294119  4.23529411764707 9.52941176470588  C 4.23529411764707 10.1176470588235  4.44117647058829 10.6176470588235  4.85294117647061 11.0294117647059  L 9.44117647058829 15.6176470588235  C 9.83823529411768 16.0147058823529  10.3382352941177 16.2132352941177  10.9411764705883 16.2132352941177  C 11.5588235294117 16.2132352941177  12.0882352941177 15.9852941176471  12.5294117647059 15.5294117647059  C 12.4852941176471 15.485294117647  12.3455882352941 15.3492647058823  12.1102941176471 15.1213235294118  C 11.875 14.8933823529412  11.7169117647059 14.7352941176471  11.6360294117648 14.6470588235294  C 11.5551470588235 14.5588235294118  11.4448529411765 14.4191176470588  11.3051470588235 14.2279411764706  C 11.1654411764706 14.0367647058823  11.0698529411765 13.8492647058823  11.0183823529412 13.6654411764706  C 10.9669117647059 13.4816176470588  10.9411764705883 13.2794117647059  10.9411764705883 13.0588235294118  C 10.9411764705883 12.4705882352941  11.1470588235294 11.9705882352941  11.5588235294117 11.5588235294118  C 11.9705882352941 11.1470588235294  12.4705882352941 10.9411764705882  13.0588235294117 10.9411764705882  C 13.2794117647059 10.9411764705882  13.4816176470588 10.9669117647059  13.6654411764706 11.0183823529412  C 13.8492647058823 11.0698529411765  14.0367647058823 11.1654411764706  14.2279411764706 11.3051470588235  C 14.4191176470588 11.4448529411765  14.5588235294117 11.5551470588235  14.6470588235294 11.6360294117647  C 14.7352941176471 11.7169117647059  14.8933823529412 11.875  15.1213235294117 12.1102941176471  C 15.3492647058823 12.3455882352941  15.4852941176471 12.4852941176471  15.5294117647059 12.5294117647059  Z M 34.1470588235294 21.9705882352941  C 35.3823529411765 23.2058823529412  36 24.7058823529412  36 26.4705882352941  C 36 28.2352941176471  35.375 29.7279411764706  34.125 30.9485294117647  L 30.8823529411765 34.1691176470588  C 29.6617647058823 35.3897058823529  28.1691176470588 36  26.4044117647059 36  C 24.625 36  23.125 35.375  21.9044117647059 34.125  L 17.3602941176471 29.5588235294118  C 16.1397058823529 28.3382352941177  15.5294117647059 26.8455882352941  15.5294117647059 25.0808823529412  C 15.5294117647059 23.2720588235294  16.1764705882352 21.7352941176471  17.4705882352941 20.4705882352941  L 15.5294117647059 18.5294117647059  C 14.2647058823529 19.8235294117647  12.7352941176471 20.4705882352941  10.9411764705883 20.4705882352941  C 9.17647058823525 20.4705882352941  7.67647058823525 19.8529411764706  6.44117647058829 18.6176470588235  L 1.85294117647061 14.0294117647059  C 0.617647058823536 12.7941176470588  0 11.2941176470588  0 9.52941176470588  C 0 7.76470588235293  0.625 6.27205882352942  1.875 5.0514705882353  L 5.11764705882354 1.83088235294119  C 6.33823529411768 0.610294117647044  7.83088235294122 0  9.59558823529414 0  C 11.375 0  12.875 0.625  14.0955882352941 1.875  L 18.6397058823529 6.44117647058823  C 19.8602941176471 7.66176470588235  20.4705882352941 9.15441176470588  20.4705882352941 10.9191176470588  C 20.4705882352941 12.7279411764706  19.8235294117648 14.2647058823529  18.5294117647059 15.5294117647059  L 20.4705882352941 17.4705882352941  C 21.7352941176471 16.1764705882353  23.2647058823529 15.5294117647059  25.0588235294117 15.5294117647059  C 26.8235294117648 15.5294117647059  28.3235294117648 16.1470588235294  29.5588235294117 17.3823529411765  L 34.1470588235294 21.9705882352941  Z " fill-rule="nonzero" fill="#333333" stroke="none" transform="matrix(1 0 0 1 17 75 )" />
  </g>
</svg>