<?xml version="1.0" encoding="utf-8"?>
<svg version="1.1" xmlns:xlink="http://www.w3.org/1999/xlink" width="56px" height="56px" xmlns="http://www.w3.org/2000/svg">
  <g transform="matrix(1 0 0 1 -601 -206 )">
    <path d="M 629 206  C 644.68 206  657 218.32  657 234  C 657 249.68  644.68 262  629 262  C 613.32 262  601 249.68  601 234  C 601 218.32  613.32 206  629 206  Z " fill-rule="nonzero" fill="#ffffff" stroke="none" />
    <path d="M 629 206.5  C 644.4 206.5  656.5 218.6  656.5 234  C 656.5 249.4  644.4 261.5  629 261.5  C 613.6 261.5  601.5 249.4  601.5 234  C 601.5 218.6  613.6 206.5  629 206.5  Z " stroke-width="1" stroke="#797979" fill="none" />
  </g>
</svg>