<?xml version="1.0" encoding="utf-8"?>
<svg version="1.1" xmlns:xlink="http://www.w3.org/1999/xlink" width="37px" height="39px" xmlns="http://www.w3.org/2000/svg">
  <g transform="matrix(1 0 0 1 -135 -1104 )">
    <path d="M 28.4479925551715 19.5  L 35.3390498980767 23.41015625  C 36.1335076368579 23.8502604166665  36.6473145440043 24.5061848958335  36.8804706195162 25.3779296875  C 37.113626695028 26.2496744791665  37.0056840674763 27.0748697916665  36.5566427368609 27.853515625  L 34.8986439776656 30.646484375  C 34.4496026470502 31.4251302083335  33.7803583562291 31.9287109375  32.8909111052026 32.1572265625  C 32.0014638541758 32.3857421875  31.1595113592721 32.2799479166665  30.3650536204911 31.83984375  L 23.4739962775856 27.955078125  L 23.4739962775856 35.75  C 23.4739962775856 36.6302083333335  23.1458506898283 37.3919270833335  22.4895595143136 38.03515625  C 21.8332683387989 38.6783854166665  21.0560814204261 39  20.1579987591952 39  L 16.8420012408048 39  C 15.9439185795739 39  15.1667316612011 38.6783854166665  14.5104404856864 38.03515625  C 13.8541493101717 37.3919270833335  13.5260037224143 36.6302083333335  13.5260037224143 35.75  L 13.5260037224143 27.955078125  L 6.63494637950892 31.83984375  C 5.84048864072793 32.2799479166665  4.99853614582418 32.3857421875  4.10908889479742 32.1572265625  C 3.21964164377089 31.9287109375  2.5503973529498 31.4251302083335  2.10135602233437 30.646484375  L 0.443357263139151 27.853515625  C -0.00568406747627722 27.0748697916665  -0.113626695027971 26.2496744791665  0.119529380483842 25.3779296875  C 0.352685455995655 24.5061848958335  0.866492363142054 23.8502604166665  1.66095010192327 23.41015625  L 8.55200744482847 19.5  L 1.66095010192327 15.58984375  C 0.866492363142054 15.1497395833335  0.352685455995655 14.4938151041665  0.119529380483842 13.6220703125  C -0.113626695027971 12.7503255208335  -0.00568406747627722 11.9251302083335  0.443357263139151 11.146484375  L 2.10135602233437 8.353515625  C 2.5503973529498 7.57486979166652  3.21964164377089 7.0712890625  4.10908889479742 6.8427734375  C 4.99853614582418 6.6142578125  5.84048864072793 6.72005208333348  6.63494637950892 7.16015625  L 13.5260037224143 11.044921875  L 13.5260037224143 3.25  C 13.5260037224143 2.36979166666652  13.8541493101717 1.60807291666652  14.5104404856864 0.96484375  C 15.1667316612011 0.321614583333485  15.9439185795739 0  16.8420012408048 0  L 20.1579987591952 0  C 21.0560814204261 0  21.8332683387989 0.321614583333485  22.4895595143136 0.96484375  C 23.1458506898283 1.60807291666652  23.4739962775856 2.36979166666652  23.4739962775856 3.25  L 23.4739962775856 11.044921875  L 30.3650536204911 7.16015625  C 31.1595113592721 6.72005208333348  32.0014638541758 6.6142578125  32.8909111052026 6.8427734375  C 33.7803583562291 7.0712890625  34.4496026470502 7.57486979166652  34.8986439776656 8.353515625  L 36.5566427368609 11.146484375  C 37.0056840674763 11.9251302083335  37.113626695028 12.7503255208335  36.8804706195162 13.6220703125  C 36.6473145440043 14.4938151041665  36.1335076368579 15.1497395833335  35.3390498980767 15.58984375  L 28.4479925551715 19.5  Z " fill-rule="nonzero" fill="#ff0000" stroke="none" fill-opacity="0.63921568627451" transform="matrix(1 0 0 1 135 1104 )" />
  </g>
</svg>