<?xml version="1.0" encoding="utf-8"?>
<svg version="1.1" xmlns:xlink="http://www.w3.org/1999/xlink" width="50px" height="45px" xmlns="http://www.w3.org/2000/svg">
  <g transform="matrix(1 0 0 1 -670 -32 )">
    <path d="M 48.5212053571429 24.665625  C 49.507068452381 22.153125  50 19.03125  50 15.3  C 50 12.1875  48.8188244047619 7.959375  46.4564732142857 2.615625  C 46.4006696428572 2.484375  46.3030133928572 2.259375  46.1635044642857 1.940625  C 46.0239955357143 1.621875  45.8984375 1.340625  45.7868303571429 1.096875  C 45.6752232142857 0.853124999999998  45.5543154761905 0.646875000000001  45.4241071428571 0.478125  C 45.2008928571429 0.159375  44.9404761904762 0  44.6428571428571 0  C 44.3638392857143 0  44.1452752976191 0.0937499999999997  43.9871651785714 0.281249999999999  C 43.8290550595238 0.468750000000003  43.75 0.703125  43.75 0.984374999999999  C 43.75 1.153125  43.7732514880952 1.4015625  43.8197544642857 1.7296875  C 43.8662574404762 2.0578125  43.8895089285714 2.278125  43.8895089285714 2.390625  C 43.9825148809524 3.665625  44.0290178571429 4.81875  44.0290178571429 5.85  C 44.0290178571429 7.74375  43.8662574404762 9.440625  43.5407366071429 10.940625  C 43.2152157738095 12.440625  42.7641369047619 13.7390625  42.1875 14.8359375  C 41.6108630952381 15.9328125  40.8668154761905 16.8796875  39.9553571428571 17.6765625  C 39.0438988095238 18.4734375  38.0626860119048 19.125  37.01171875 19.63125  C 35.9607514880952 20.1375  34.7237723214286 20.5359375  33.30078125 20.8265625  C 31.8777901785714 21.1171875  30.4454985119048 21.31875  29.00390625 21.43125  C 27.5623139880952 21.54375  25.9300595238095 21.6  24.1071428571429 21.6  L 17.8571428571429 21.6  L 17.8571428571429 14.4  C 17.8571428571429 13.9125  17.6804315476191 13.490625  17.3270089285714 13.134375  C 16.9735863095238 12.778125  16.5550595238095 12.6  16.0714285714286 12.6  C 15.5877976190476 12.6  15.1692708333333 12.778125  14.8158482142857 13.134375  L 0.530133928571429 27.534375  C 0.17671130952381 27.890625  0 28.3125  0 28.8  C 0 29.2875  0.17671130952381 29.709375  0.530133928571429 30.065625  L 14.8158482142857 44.465625  C 15.1692708333333 44.821875  15.5877976190476 45  16.0714285714286 45  C 16.5550595238095 45  16.9735863095238 44.821875  17.3270089285714 44.465625  C 17.6804315476191 44.109375  17.8571428571429 43.6875  17.8571428571429 43.2  L 17.8571428571429 36  L 24.1071428571429 36  C 37.3697916666667 36  45.5078125 32.221875  48.5212053571429 24.665625  Z " fill-rule="nonzero" fill="#000000" stroke="none" transform="matrix(1 0 0 1 670 32 )" />
  </g>
</svg>