<?xml version="1.0" encoding="utf-8"?>
<svg version="1.1" xmlns:xlink="http://www.w3.org/1999/xlink" width="90px" height="90px" xmlns="http://www.w3.org/2000/svg">
  <defs>
    <linearGradient gradientUnits="userSpaceOnUse" x1="529" y1="1149" x2="529" y2="1239" id="LinearGradient5">
      <stop id="Stop6" stop-color="#ffffff" offset="0" />
      <stop id="Stop7" stop-color="#f5f5f5" offset="0.2" />
      <stop id="Stop8" stop-color="#f0f0f0" offset="0.9" />
      <stop id="Stop9" stop-color="#d2d2d2" offset="1" />
      <stop id="Stop10" stop-color="#ffffff" offset="1" />
    </linearGradient>
  </defs>
  <g transform="matrix(1 0 0 1 -484 -1149 )">
    <path d="M 529 1149  C 554.2 1149  574 1168.8  574 1194  C 574 1219.2  554.2 1239  529 1239  C 503.8 1239  484 1219.2  484 1194  C 484 1168.8  503.8 1149  529 1149  Z " fill-rule="nonzero" fill="url(#LinearGradient5)" stroke="none" />
    <path d="M 529 1149.5  C 553.92 1149.5  573.5 1169.08  573.5 1194  C 573.5 1218.92  553.92 1238.5  529 1238.5  C 504.08 1238.5  484.5 1218.92  484.5 1194  C 484.5 1169.08  504.08 1149.5  529 1149.5  Z " stroke-width="1" stroke="#797979" fill="none" />
  </g>
</svg>