<?xml version="1.0" encoding="utf-8"?>
<svg version="1.1" xmlns:xlink="http://www.w3.org/1999/xlink" width="40px" height="40px" xmlns="http://www.w3.org/2000/svg">
  <g transform="matrix(1 0 0 1 -25 -1274 )">
    <path d="M 45 1274  C 56.2 1274  65 1282.8  65 1294  C 65 1305.2  56.2 1314  45 1314  C 33.8 1314  25 1305.2  25 1294  C 25 1282.8  33.8 1274  45 1274  Z " fill-rule="nonzero" fill="#ffffff" stroke="none" />
    <path d="M 45 1274.5  C 55.92 1274.5  64.5 1283.08  64.5 1294  C 64.5 1304.92  55.92 1313.5  45 1313.5  C 34.08 1313.5  25.5 1304.92  25.5 1294  C 25.5 1283.08  34.08 1274.5  45 1274.5  Z " stroke-width="1" stroke="#797979" fill="none" />
  </g>
</svg>