<?xml version="1.0" encoding="utf-8"?>
<svg version="1.1" xmlns:xlink="http://www.w3.org/1999/xlink" width="120px" height="120px" xmlns="http://www.w3.org/2000/svg">
  <g transform="matrix(1 0 0 1 -600 -158 )">
    <path d="M 660 163  C 690.8 163  715 187.2  715 218  C 715 248.8  690.8 273  660 273  C 629.2 273  605 248.8  605 218  C 605 187.2  629.2 163  660 163  Z " fill-rule="nonzero" fill="#ffffff" stroke="none" />
    <path d="M 660 161  C 691.92 161  717 186.08  717 218  C 717 249.92  691.92 275  660 275  C 628.08 275  603 249.92  603 218  C 603 186.08  628.08 161  660 161  Z " stroke-width="6" stroke="#70b603" fill="none" />
  </g>
</svg>