<?xml version="1.0" encoding="utf-8"?>
<svg version="1.1" xmlns:xlink="http://www.w3.org/1999/xlink" width="120px" height="120px" xmlns="http://www.w3.org/2000/svg">
  <g transform="matrix(1 0 0 1 -30 -31 )">
    <path d="M 90 36  C 120.8 36  145 60.2  145 91  C 145 121.8  120.8 146  90 146  C 59.2 146  35 121.8  35 91  C 35 60.2  59.2 36  90 36  Z " fill-rule="nonzero" fill="#ffffff" stroke="none" />
    <path d="M 90 34  C 121.92 34  147 59.08  147 91  C 147 122.92  121.92 148  90 148  C 58.08 148  33 122.92  33 91  C 33 59.08  58.08 34  90 34  Z " stroke-width="6" stroke="#70b603" fill="none" />
  </g>
</svg>