<?xml version="1.0" encoding="utf-8"?>
<svg version="1.1" xmlns:xlink="http://www.w3.org/1999/xlink" width="39px" height="39px" xmlns="http://www.w3.org/2000/svg">
  <g transform="matrix(1 0 0 1 -125 -31 )">
    <path d="M 144.5 31  C 155.42 31  164 39.58  164 50.5  C 164 61.42  155.42 70  144.5 70  C 133.58 70  125 61.42  125 50.5  C 125 39.58  133.58 31  144.5 31  Z " fill-rule="nonzero" fill="#ffffff" stroke="none" />
    <path d="M 144.5 31.5  C 155.14 31.5  163.5 39.86  163.5 50.5  C 163.5 61.14  155.14 69.5  144.5 69.5  C 133.86 69.5  125.5 61.14  125.5 50.5  C 125.5 39.86  133.86 31.5  144.5 31.5  Z " stroke-width="1" stroke="#797979" fill="none" />
  </g>
</svg>