<?xml version="1.0" encoding="utf-8"?>
<svg version="1.1" xmlns:xlink="http://www.w3.org/1999/xlink" width="120px" height="120px" xmlns="http://www.w3.org/2000/svg">
  <g transform="matrix(1 0 0 1 -30 -481 )">
    <path d="M 90 481  C 123.6 481  150 507.4  150 541  C 150 574.6  123.6 601  90 601  C 56.4 601  30 574.6  30 541  C 30 507.4  56.4 481  90 481  Z " fill-rule="nonzero" fill="#7f7f7f" stroke="none" />
    <path d="M 90 481.5  C 123.32 481.5  149.5 507.68  149.5 541  C 149.5 574.32  123.32 600.5  90 600.5  C 56.68 600.5  30.5 574.32  30.5 541  C 30.5 507.68  56.68 481.5  90 481.5  Z " stroke-width="1" stroke="#797979" fill="none" />
  </g>
</svg>