<?xml version="1.0" encoding="utf-8"?>
<svg version="1.1" xmlns:xlink="http://www.w3.org/1999/xlink" width="110px" height="110px" xmlns="http://www.w3.org/2000/svg">
  <g transform="matrix(1 0 0 1 -125 -772 )">
    <path d="M 125 772  L 235 772  L 235 882  L 125 882  L 125 772  " fill-rule="nonzero" fill="#cccccc" stroke="none" />
    <path d="M 133 780  L 227 780  L 227 874  L 133 874  L 133 780  " fill-rule="nonzero" fill="#ffffff" stroke="none" />
    <path d="M 190.45 805  C 185.83 805  182.2 801.37  182.2 796.75  C 182.2 792.13  185.83 788.5  190.45 788.5  C 195.07 788.5  198.7 792.13  198.7 796.75  C 198.7 801.37  195.07 805  190.45 805  " fill-rule="nonzero" fill="#cccccc" stroke="none" />
    <path d="M 136 871  L 136 822.6  L 158 800.6  L 188.8 818.2  L 206.4 813.8  L 224 818.2  L 224 871  L 136 871  " fill-rule="nonzero" fill="#169bd5" stroke="none" />
  </g>
</svg>