<?xml version="1.0" encoding="utf-8"?>
<svg version="1.1" xmlns:xlink="http://www.w3.org/1999/xlink" width="110px" height="110px" xmlns="http://www.w3.org/2000/svg">
  <g transform="matrix(1 0 0 1 -61 -415 )">
    <path d="M 61 415  L 171 415  L 171 525  L 61 525  L 61 415  " fill-rule="nonzero" fill="#cccccc" stroke="none" />
    <path d="M 69 423  L 163 423  L 163 517  L 69 517  L 69 423  " fill-rule="nonzero" fill="#ffffff" stroke="none" />
    <path d="M 126.45 448  C 121.83 448  118.2 444.37  118.2 439.75  C 118.2 435.13  121.83 431.5  126.45 431.5  C 131.07 431.5  134.7 435.13  134.7 439.75  C 134.7 444.37  131.07 448  126.45 448  " fill-rule="nonzero" fill="#cccccc" stroke="none" />
    <path d="M 72 514  L 72 465.6  L 94 443.6  L 124.8 461.2  L 142.4 456.8  L 160 461.2  L 160 514  L 72 514  " fill-rule="nonzero" fill="#169bd5" stroke="none" />
  </g>
</svg>