<?xml version="1.0" encoding="utf-8"?>
<svg version="1.1" xmlns:xlink="http://www.w3.org/1999/xlink" width="33px" height="50px" xmlns="http://www.w3.org/2000/svg">
  <g transform="matrix(1 0 0 1 -580 -676 )">
    <path d="M 24.3310546875 26.461038961039  L 1.4501953125 49.512987012987  C 1.0419921875 49.9242424242424  0.6982421875 50.0649350649351  0.4189453125 49.9350649350649  C 0.1396484375 49.8051948051948  0 49.4588744588745  0 48.8961038961039  L 0 1.1038961038961  C 0 0.541125541125537  0.1396484375 0.194805194805192  0.4189453125 0.0649350649350622  C 0.6982421875 -0.0649350649350677  1.0419921875 0.0757575757575735  1.4501953125 0.487012987012986  L 24.3310546875 23.538961038961  C 24.5244140625 23.7337662337662  24.6640625 23.9393939393939  24.75 24.1558441558442  L 24.75 2.14285714285714  C 24.75 1.58008658008658  24.9541015625 1.09307359307359  25.3623046875 0.681818181818183  C 25.7705078125 0.270562770562766  26.25390625 0.0649350649350622  26.8125 0.0649350649350622  L 30.9375 0.0649350649350622  C 31.49609375 0.0649350649350622  31.9794921875 0.270562770562766  32.3876953125 0.681818181818183  C 32.7958984375 1.09307359307359  33 1.58008658008658  33 2.14285714285714  L 33 47.8571428571429  C 33 48.4199134199134  32.7958984375 48.9069264069264  32.3876953125 49.3181818181818  C 31.9794921875 49.7294372294372  31.49609375 49.9350649350649  30.9375 49.9350649350649  L 26.8125 49.9350649350649  C 26.25390625 49.9350649350649  25.7705078125 49.7294372294372  25.3623046875 49.3181818181818  C 24.9541015625 48.9069264069264  24.75 48.4199134199134  24.75 47.8571428571429  L 24.75 25.8441558441558  C 24.6640625 26.0606060606061  24.5244140625 26.2662337662338  24.3310546875 26.461038961039  Z " fill-rule="nonzero" fill="#000000" stroke="none" transform="matrix(1 0 0 1 580 676 )" />
  </g>
</svg>