<?xml version="1.0" encoding="utf-8"?>
<svg version="1.1" xmlns:xlink="http://www.w3.org/1999/xlink" width="50px" height="50px" xmlns="http://www.w3.org/2000/svg">
  <g transform="matrix(1 0 0 1 -157 -676 )">
    <path d="M 182 676  C 196 676  207 687  207 701  C 207 715  196 726  182 726  C 168 726  157 715  157 701  C 157 687  168 676  182 676  Z " fill-rule="nonzero" fill="#ffffff" stroke="none" />
    <path d="M 182 676.5  C 195.72 676.5  206.5 687.28  206.5 701  C 206.5 714.72  195.72 725.5  182 725.5  C 168.28 725.5  157.5 714.72  157.5 701  C 157.5 687.28  168.28 676.5  182 676.5  Z " stroke-width="1" stroke="#797979" fill="none" />
  </g>
</svg>