<?xml version="1.0" encoding="utf-8"?>
<svg version="1.1" xmlns:xlink="http://www.w3.org/1999/xlink" width="50px" height="50px" xmlns="http://www.w3.org/2000/svg">
  <g transform="matrix(1 0 0 1 -157 -636 )">
    <path d="M 182 636  C 196 636  207 647  207 661  C 207 675  196 686  182 686  C 168 686  157 675  157 661  C 157 647  168 636  182 636  Z " fill-rule="nonzero" fill="#ffffff" stroke="none" />
    <path d="M 182 636.5  C 195.72 636.5  206.5 647.28  206.5 661  C 206.5 674.72  195.72 685.5  182 685.5  C 168.28 685.5  157.5 674.72  157.5 661  C 157.5 647.28  168.28 636.5  182 636.5  Z " stroke-width="1" stroke="#797979" fill="none" />
  </g>
</svg>