<?xml version="1.0" encoding="utf-8"?>
<svg version="1.1" xmlns:xlink="http://www.w3.org/1999/xlink" width="36px" height="36px" xmlns="http://www.w3.org/2000/svg">
  <g transform="matrix(1 0 0 1 -149 -524 )">
    <path d="M 167 524  C 177.08 524  185 531.92  185 542  C 185 552.08  177.08 560  167 560  C 156.92 560  149 552.08  149 542  C 149 531.92  156.92 524  167 524  Z " fill-rule="nonzero" fill="#ffffff" stroke="none" />
    <path d="M 167 524.5  C 176.8 524.5  184.5 532.2  184.5 542  C 184.5 551.8  176.8 559.5  167 559.5  C 157.2 559.5  149.5 551.8  149.5 542  C 149.5 532.2  157.2 524.5  167 524.5  Z " stroke-width="1" stroke="#797979" fill="none" />
  </g>
</svg>