<?xml version="1.0" encoding="utf-8"?>
<svg version="1.1" xmlns:xlink="http://www.w3.org/1999/xlink" width="80px" height="80px" xmlns="http://www.w3.org/2000/svg">
  <g transform="matrix(1 0 0 1 -56 -620 )">
    <path d="M 96 621  C 117.84 621  135 638.16  135 660  C 135 681.84  117.84 699  96 699  C 74.16 699  57 681.84  57 660  C 57 638.16  74.16 621  96 621  Z " fill-rule="nonzero" fill="#ffffff" stroke="none" />
    <path d="M 96 621  C 117.84 621  135 638.16  135 660  C 135 681.84  117.84 699  96 699  C 74.16 699  57 681.84  57 660  C 57 638.16  74.16 621  96 621  Z " stroke-width="2" stroke="#000000" fill="none" />
  </g>
</svg>