<?xml version="1.0" encoding="utf-8"?>
<svg version="1.1" xmlns:xlink="http://www.w3.org/1999/xlink" width="80px" height="80px" xmlns="http://www.w3.org/2000/svg">
  <g transform="matrix(1 0 0 1 -114 -661 )">
    <path d="M 154 662  C 175.84 662  193 679.16  193 701  C 193 722.84  175.84 740  154 740  C 132.16 740  115 722.84  115 701  C 115 679.16  132.16 662  154 662  Z " fill-rule="nonzero" fill="#ffffff" stroke="none" />
    <path d="M 154 662  C 175.84 662  193 679.16  193 701  C 193 722.84  175.84 740  154 740  C 132.16 740  115 722.84  115 701  C 115 679.16  132.16 662  154 662  Z " stroke-width="2" stroke="#000000" fill="none" />
  </g>
</svg>