<?xml version="1.0" encoding="utf-8"?>
<svg version="1.1" xmlns:xlink="http://www.w3.org/1999/xlink" width="40px" height="40px" xmlns="http://www.w3.org/2000/svg">
  <g transform="matrix(1 0 0 1 -44 -589 )">
    <path d="M 64 589  C 75.2 589  84 597.8  84 609  C 84 620.2  75.2 629  64 629  C 52.8 629  44 620.2  44 609  C 44 597.8  52.8 589  64 589  Z " fill-rule="nonzero" fill="#ffffff" stroke="none" />
    <path d="M 64 589.5  C 74.92 589.5  83.5 598.08  83.5 609  C 83.5 619.92  74.92 628.5  64 628.5  C 53.08 628.5  44.5 619.92  44.5 609  C 44.5 598.08  53.08 589.5  64 589.5  Z " stroke-width="1" stroke="#797979" fill="none" />
  </g>
</svg>