<?xml version="1.0" encoding="utf-8"?>
<svg version="1.1" xmlns:xlink="http://www.w3.org/1999/xlink" width="40px" height="40px" xmlns="http://www.w3.org/2000/svg">
  <g transform="matrix(1 0 0 1 -814 -629 )">
    <path d="M 834 629  C 845.2 629  854 637.8  854 649  C 854 660.2  845.2 669  834 669  C 822.8 669  814 660.2  814 649  C 814 637.8  822.8 629  834 629  Z " fill-rule="nonzero" fill="#ffffff" stroke="none" />
    <path d="M 834 629.5  C 844.92 629.5  853.5 638.08  853.5 649  C 853.5 659.92  844.92 668.5  834 668.5  C 823.08 668.5  814.5 659.92  814.5 649  C 814.5 638.08  823.08 629.5  834 629.5  Z " stroke-width="1" stroke="#797979" fill="none" />
  </g>
</svg>