<?xml version="1.0" encoding="utf-8"?>
<svg version="1.1" xmlns:xlink="http://www.w3.org/1999/xlink" width="42px" height="40px" xmlns="http://www.w3.org/2000/svg">
  <g transform="matrix(1 0 0 1 -129 -16 )">
    <path d="M 150 16  C 161.76 16  171 24.8  171 36  C 171 47.2  161.76 56  150 56  C 138.24 56  129 47.2  129 36  C 129 24.8  138.24 16  150 16  Z " fill-rule="nonzero" fill="#ffffff" stroke="none" />
    <path d="M 150 16.5  C 161.48 16.5  170.5 25.08  170.5 36  C 170.5 46.92  161.48 55.5  150 55.5  C 138.52 55.5  129.5 46.92  129.5 36  C 129.5 25.08  138.52 16.5  150 16.5  Z " stroke-width="1" stroke="#797979" fill="none" />
  </g>
</svg>