<?xml version="1.0" encoding="utf-8"?>
<svg version="1.1" xmlns:xlink="http://www.w3.org/1999/xlink" width="50px" height="52px" xmlns="http://www.w3.org/2000/svg">
  <g transform="matrix(1 0 0 1 -211 -466 )">
    <path d="M 236 466  C 250 466  261 477.44  261 492  C 261 506.56  250 518  236 518  C 222 518  211 506.56  211 492  C 211 477.44  222 466  236 466  Z " fill-rule="nonzero" fill="#ffffff" stroke="none" />
    <path d="M 236 466.5  C 249.72 466.5  260.5 477.72  260.5 492  C 260.5 506.28  249.72 517.5  236 517.5  C 222.28 517.5  211.5 506.28  211.5 492  C 211.5 477.72  222.28 466.5  236 466.5  Z " stroke-width="1" stroke="#797979" fill="none" />
  </g>
</svg>