<?xml version="1.0" encoding="utf-8"?>
<svg version="1.1" xmlns:xlink="http://www.w3.org/1999/xlink" width="120px" height="120px" xmlns="http://www.w3.org/2000/svg">
  <g transform="matrix(1 0 0 1 -20 -15 )">
    <path d="M 80 15  C 113.6 15  140 41.4  140 75  C 140 108.6  113.6 135  80 135  C 46.4 135  20 108.6  20 75  C 20 41.4  46.4 15  80 15  Z " fill-rule="nonzero" fill="#ffffff" stroke="none" />
    <path d="M 80 15.5  C 113.32 15.5  139.5 41.68  139.5 75  C 139.5 108.32  113.32 134.5  80 134.5  C 46.68 134.5  20.5 108.32  20.5 75  C 20.5 41.68  46.68 15.5  80 15.5  Z " stroke-width="1" stroke="#797979" fill="none" />
  </g>
</svg>