<?xml version="1.0" encoding="utf-8"?>
<svg version="1.1" xmlns:xlink="http://www.w3.org/1999/xlink" width="110px" height="110px" xmlns="http://www.w3.org/2000/svg">
  <g transform="matrix(1 0 0 1 -23 -818 )">
    <path d="M 23 818  L 133 818  L 133 928  L 23 928  L 23 818  " fill-rule="nonzero" fill="#cccccc" stroke="none" />
    <path d="M 31 826  L 125 826  L 125 920  L 31 920  L 31 826  " fill-rule="nonzero" fill="#ffffff" stroke="none" />
    <path d="M 88.45 851  C 83.83 851  80.2 847.37  80.2 842.75  C 80.2 838.13  83.83 834.5  88.45 834.5  C 93.07 834.5  96.7 838.13  96.7 842.75  C 96.7 847.37  93.07 851  88.45 851  " fill-rule="nonzero" fill="#cccccc" stroke="none" />
    <path d="M 34 917  L 34 868.6  L 56 846.6  L 86.8 864.2  L 104.4 859.8  L 122 864.2  L 122 917  L 34 917  " fill-rule="nonzero" fill="#169bd5" stroke="none" />
  </g>
</svg>