<?xml version="1.0" encoding="utf-8"?>
<svg version="1.1" xmlns:xlink="http://www.w3.org/1999/xlink" width="108px" height="108px" xmlns="http://www.w3.org/2000/svg">
  <g transform="matrix(1 0 0 1 -631 -304 )">
    <path d="M 685 304  C 715.24 304  739 327.76  739 358  C 739 388.24  715.24 412  685 412  C 654.76 412  631 388.24  631 358  C 631 327.76  654.76 304  685 304  Z " fill-rule="nonzero" fill="#ffffff" stroke="none" />
    <path d="M 685 304.5  C 714.96 304.5  738.5 328.04  738.5 358  C 738.5 387.96  714.96 411.5  685 411.5  C 655.04 411.5  631.5 387.96  631.5 358  C 631.5 328.04  655.04 304.5  685 304.5  Z " stroke-width="1" stroke="#797979" fill="none" />
  </g>
</svg>